<?xml version="1.0" standalone="no"?>
<!DOCTYPE svg PUBLIC "-//W3C//DTD SVG 20010904//EN"
 "http://www.w3.org/TR/2001/REC-SVG-20010904/DTD/svg10.dtd">
<svg version="1.0" xmlns="http://www.w3.org/2000/svg"
 width="475.000000pt" height="475.000000pt" viewBox="0 0 475.000000 475.000000"
 preserveAspectRatio="xMidYMid meet">
<metadata>
Created by potrace 1.14, written by Peter Selinger 2001-2017
</metadata>
<g transform="translate(0.000000,475.000000) scale(0.100000,-0.100000)"
fill="#000000" stroke="none">
<path d="M1563 4740 c-238 -36 -628 -293 -763 -502 -64 -98 -85 -197 -66 -308
4 -19 9 -53 12 -74 6 -44 81 -343 113 -451 37 -124 36 -132 -34 -210 -50 -55
-185 -235 -198 -262 -6 -13 -14 -23 -19 -23 -4 0 -8 -4 -8 -9 0 -8 -64 -125
-99 -181 -8 -14 -16 -27 -16 -30 0 -3 -12 -30 -27 -60 -39 -82 -56 -125 -93
-230 -39 -112 -50 -161 -41 -195 6 -24 10 -26 43 -20 35 5 134 55 198 99 43
30 214 175 250 212 86 89 180 213 225 298 16 32 30 54 30 50 7 -139 89 -348
183 -464 40 -51 47 -64 35 -71 -32 -18 -170 -120 -205 -152 -21 -19 -65 -58
-98 -88 -93 -83 -218 -215 -285 -301 -25 -33 -55 -59 -69 -63 -36 -9 -50 -23
-44 -44 2 -9 -3 -23 -11 -30 -21 -17 -20 -40 0 -48 12 -4 14 -14 10 -35 -5
-25 -2 -31 23 -41 19 -8 27 -18 25 -32 -4 -29 13 -43 49 -40 23 1 40 -6 63
-27 l31 -29 27 32 c15 18 39 33 54 35 53 6 220 52 260 72 23 11 43 18 45 15 3
-2 -18 -68 -45 -146 -86 -251 -111 -357 -111 -482 -1 -175 35 -271 138 -371
l64 -61 -47 -29 c-115 -72 -222 -185 -222 -235 0 -9 8 -27 18 -39 14 -18 29
-22 82 -23 81 -2 109 5 208 47 126 53 273 161 305 225 9 19 28 28 82 42 39 10
110 29 158 43 120 34 209 30 327 -14 90 -34 101 -38 200 -88 86 -43 97 -51
116 -92 36 -74 164 -183 317 -269 57 -32 110 -41 154 -26 99 34 82 121 -51
260 l-63 65 25 16 c136 89 248 307 261 509 1 14 19 29 59 48 112 55 115 68 26
132 -77 55 -78 58 -41 77 42 21 332 166 379 189 66 33 79 13 -194 315 -21 23
-38 44 -38 47 0 3 30 20 68 38 240 113 413 203 422 220 13 24 11 28 -99 193
-99 149 -241 370 -238 372 1 1 34 25 74 55 39 30 81 61 93 69 12 8 60 43 107
78 47 34 89 62 93 62 5 0 15 6 22 13 17 16 252 170 353 232 44 27 100 63 125
80 25 17 64 42 87 54 49 28 51 37 47 226 -5 210 -28 623 -39 685 -2 14 -7 48
-10 75 -5 51 -10 90 -20 158 -3 21 -10 47 -15 58 -10 18 -12 18 -53 -8 -36
-23 -283 -217 -297 -234 -3 -3 -34 -30 -70 -60 -36 -29 -72 -60 -80 -68 -8 -9
-55 -52 -105 -95 -49 -44 -97 -86 -105 -95 -8 -9 -27 -25 -41 -36 -57 -45
-180 -157 -312 -285 -76 -74 -145 -139 -153 -143 -19 -11 -34 0 -34 24 0 28
-26 34 -57 14 -26 -17 -27 -17 -47 7 -19 24 -22 24 -37 9 -9 -9 -30 -45 -47
-80 l-31 -63 -12 28 c-33 86 -100 215 -140 274 l-46 68 61 28 c203 96 543 330
700 482 199 194 360 395 420 525 29 63 18 72 -82 68 -95 -4 -414 -110 -501
-168 -14 -9 -55 -32 -91 -51 -135 -72 -340 -223 -452 -335 -61 -62 -62 -62
-73 8 -9 55 -70 270 -95 336 -26 67 -44 90 -100 121 -68 37 -295 92 -511 122
-68 10 -334 14 -386 6z m1647 -2570 c84 -76 180 -169 180 -175 0 -2 -69 -37
-152 -79 -152 -75 -277 -142 -323 -172 -22 -14 -24 -14 -33 3 -10 19 -29 97
-36 151 -4 28 4 42 62 110 37 42 94 118 126 169 68 106 51 106 176 -7z m-245
-543 c20 -16 71 -57 140 -112 21 -16 58 -49 84 -72 l46 -43 -24 -17 c-25 -18
-71 -46 -149 -90 -31 -17 -43 -20 -46 -11 -2 7 -16 49 -31 93 -16 44 -29 89
-31 100 -1 11 -12 51 -23 90 -12 38 -21 79 -21 89 0 17 2 18 18 4 9 -8 26 -22
37 -31z"/>
</g>
</svg>
